<?xml version="1.0" encoding="UTF-8"?>
<svg id="Layer_1" data-name="Layer 1" xmlns="http://www.w3.org/2000/svg" xmlns:xlink="http://www.w3.org/1999/xlink" viewBox="0 0 518.39 437.87">
  <defs>
    <style>
      .cls-1 {
        fill: #6c4ab6;
      }

      .cls-2 {
        filter: url(#drop-shadow-1);
      }

      .cls-3 {
        fill: #379237;
      }
    </style>
    <filter id="drop-shadow-1" filterUnits="userSpaceOnUse">
      <feOffset dx="7" dy="7"/>
      <feGaussianBlur result="blur" stdDeviation="3"/>
      <feFlood flood-color="#000" flood-opacity=".27"/>
      <feComposite in2="blur" operator="in"/>
      <feComposite in="SourceGraphic"/>
    </filter>
  </defs>
  <g class="cls-2">
    <polygon class="cls-3" points="112.65 114.7 44.52 114.7 44.52 365.7 233.85 365.7 233.85 307.97 112.65 307.97 112.65 114.7"/>
    <path class="cls-1" d="m424.55,114.7v94.41c-.15.23-.3.46-.45.69-18.11,27.9-41.36,54.4-67.68,78.25v-19.88h-44.39v55.59c-21.88,15.61-44.88,29.32-68.12,40.62V114.7h68.12v94.31h44.39v-94.31h68.13Z"/>
    <path class="cls-1" d="m356.42,358.46c24.2-17.46,47.2-36.85,68.13-57.7v64.94h-68.13v-7.23Z"/>
    <path d="m308.16,29.09c-1.13.34-2.24.69-3.37,1.04l-.07-.2c1.14-.29,2.29-.57,3.43-.84Z"/>
    <path class="cls-1" d="m467.87,216.46c-12.44,19.15-27.05,37.69-43.32,55.31-20.46,22.17-43.53,42.87-68.13,61.45-14.34,10.84-29.22,20.95-44.39,30.21-1.26.77-2.5,1.52-3.76,2.28-61.7,36.97-128.14,59.75-185.1,59.75-35.64,0-63.41-8.93-82.55-24.68-15.06-12.39-24.79-28.99-28.82-48.79,11.69,36.51,46.5,59.21,101.37,59.21,47.62,0,102.37-17.1,154.64-45.5,15.01-8.15,29.83-17.24,44.22-27.12,15.39-10.57,30.28-22.05,44.39-34.27,25.86-22.38,49.14-47.23,68.13-73.54,3.41-4.72,6.69-9.49,9.81-14.3,69.84-107.55,39.27-194.73-68.27-194.73-18.44,0-37.93,2.56-57.93,7.36-1.14.27-2.29.55-3.43.84-38.51,9.67-78.8,27.47-116.91,51.02,36.98-24.62,76.37-44.3,114.9-57.08,31.83-10.55,63.07-16.38,91.89-16.38,115.41,0,148.22,93.56,73.27,208.98Z"/>
    <path d="m308.16,29.09c-1.13.34-2.24.69-3.37,1.04l-.07-.2c1.14-.29,2.29-.57,3.43-.84Z"/>
    <path class="cls-3" d="m518.31,105.02c.02.45-.54,7.41-.56,8.16-.4,2.55-.91,7.62-1.34,10.06-.64,3.24-1.3,7.09-2.05,10.32l-1.75,7.02c-.47,1.94-1.42,5.08-2.06,7.11-.39,1.34-1.25,4.07-1.66,5.37-1.26,3.44-3.27,9.28-4.76,12.75-.75,1.84-2.32,5.52-3.07,7.36-1.04,2.33-4.04,8.68-5.2,11.15-1.73,3.57-4.01,7.64-5.83,11.25-1.37,2.41-4.99,8.77-6.45,11.3-1.62,2.59-5.49,8.84-7.05,11.34-1.57,2.32-5.98,8.91-7.62,11.34-1.79,2.57-6.43,8.84-8.18,11.3-1.79,2.34-6.84,8.83-8.73,11.25-2.16,2.67-7.11,8.6-9.25,11.17-1.61,1.84-4.86,5.53-6.48,7.37-3.82,4.27-7.72,8.5-11.72,12.66-20.7,21.63-43.73,41.82-68.13,60-61.9,46.15-132.64,79.41-196.64,90.5-3.89.55-8.49,1.36-12.35,1.87-2.38.21-9.68,1.16-12.05,1.3-3.05.19-7.39.5-10.51.69h-.03c-.08,0-.16,0-.24.02l-.95.02-7.6.13-1.9.02-.95.02-.92-.03c-2.8-.06-8.24-.36-10.98-.43-1.97-.24-8.55-.81-10.55-1.04-3.96-.56-9.64-1.43-13.36-2.28-2.82-.72-6.79-1.46-9.48-2.34-12.25-3.49-23.2-8.66-32.54-15.03-1.31-1.08-5.4-3.96-6.68-5.1-1.86-1.81-4.24-3.77-6.07-5.61-1.11-1.27-4.33-4.81-5.41-6.12-1.28-1.66-3.55-4.94-4.78-6.59-1.45-2.58-4.15-6.73-5.28-9.52l-2.28-5-1.84-5.27-.91-2.63-.7-2.76-1.39-5.52c1.08,3.06,2.31,7.69,3.68,10.5l2.18,5.04c.86,1.71,3.07,5.5,3.89,7.14.8,1.32,3.62,5.31,4.5,6.7,1.15,1.52,4.02,4.81,5.13,6.24,2.93,3.07,6.56,6.63,9.96,9.29,1.28,1.04,2.59,2.06,3.95,3.04.02.02.03.03.05.04,9.11,6.61,19.94,11.82,31.99,15.48l6.06,1.7,1.52.42c3.57.71,7.56,1.66,11.23,2.23,35.04,5.64,78.47.91,124.4-14.33,25.75-8.46,52.22-20.04,78.18-34.24l8.64-4.81c3.94-2.23,8.89-5.24,12.85-7.57,11.13-6.83,22.74-14.42,33.48-22.05,1.05-.7,3.07-2.18,4.09-2.93,2.54-1.82,7.54-5.52,10.67-7.91.54-.41,1.02-.77,1.42-1.09,1.99-1.54,5.95-4.62,7.93-6.16,2.57-2.04,8.98-7.35,11.63-9.5,4.38-3.78,10.82-9.25,14.96-13.1,4.23-3.75,10.31-9.56,14.36-13.49.9-.84,2.63-2.56,3.47-3.43,3.28-3.37,7.02-7.01,10.14-10.41l4.22-4.53,2.33-2.5c3.13-3.39,6.32-7.23,9.42-10.66,2.15-2.45,6.8-8.24,8.96-10.77,1.82-2.35,6.69-8.59,8.46-10.87,1.74-2.38,6.15-8.47,7.93-10.92,18.6-26.72,32.72-53.81,40.58-79.17.56-1.86,1.67-5.06,2.08-6.9.44-2.1,2.26-8.12,2.51-10.17.57-3.03,1.52-7,1.85-9.95,15.56-101.62-75.12-146.42-207.56-104.52,74.02-25.72,140.56-24.39,179.39,2.88l4.53,3.37c2.01,1.59,4.36,3.81,6.29,5.5,1.24,1.08,4.4,4.77,5.66,6,1.29,1.61,3.87,4.91,5.01,6.51,1.06,1.71,2.64,4.08,3.7,5.77.24.38.43.81.65,1.21l2.56,4.89c1.13,2.26,2.28,5.33,3.29,7.69.67,1.52,2.01,6.4,2.63,8.11.38,2.22,1.6,6.39,1.88,8.53.26,1.47.6,4.44.85,5.91.38,2.71.69,7.81.85,10.67-.04,2.94.07,6.55-.08,9.52Z"/>
  </g>
</svg>